<svg xmlns="http://www.w3.org/2000/svg" width="1343.432" height="903.9" viewBox="0 0 1343.432 903.9">
  <g id="Group_120" data-name="Group 120" transform="translate(-45.606 -32.311)">
    <g id="Group_109" data-name="Group 109" transform="translate(1265.086 571.861)">
      <path id="Path_201" data-name="Path 201" d="M670,368.792l46.628,15.066-10.18-48.177-46.813-15.273Z" transform="translate(-659.637 -287.56)" fill="none" stroke="#fff" stroke-linecap="round" stroke-linejoin="round" stroke-width="1"/>
      <path id="Path_202" data-name="Path 202" d="M693.379,392.587l36.547-32.641-10.365-48.384L683.2,344.41Z" transform="translate(-636.386 -296.289)" fill="none" stroke="#fff" stroke-linecap="round" stroke-linejoin="round" stroke-width="1"/>
      <path id="Path_203" data-name="Path 203" d="M659.637,336.723,706.45,352l36.362-32.847L696,303.875Z" transform="translate(-659.637 -303.875)" fill="none" stroke="#fff" stroke-linecap="round" stroke-linejoin="round" stroke-width="1"/>
    </g>
    <g id="Group_110" data-name="Group 110" transform="translate(46.106 330.875)">
      <path id="Path_204" data-name="Path 204" d="M46.106,218.22l19.271,37.2,22.8-35.4L68.914,182.583Z" transform="translate(-46.106 -182.583)" fill="none" stroke="#fff" stroke-linecap="round" stroke-linejoin="round" stroke-width="1"/>
      <path id="Path_205" data-name="Path 205" d="M55.806,236.827l41.844,2.15,22.807-35.637L78.6,201.428Z" transform="translate(-36.534 -163.986)" fill="none" stroke="#fff" stroke-linecap="round" stroke-linejoin="round" stroke-width="1"/>
      <path id="Path_206" data-name="Path 206" d="M57.585,182.583l19.259,37.441,41.856,1.913L99.441,184.5Z" transform="translate(-34.778 -182.583)" fill="none" stroke="#fff" stroke-linecap="round" stroke-linejoin="round" stroke-width="1"/>
    </g>
    <g id="Group_111" data-name="Group 111" transform="translate(699.561 862.852)">
      <path id="Path_207" data-name="Path 207" d="M375,437.025l6.057,36.218L409.6,449.856l-5.983-36.413Z" transform="translate(-375 -413.442)" fill="none" stroke="#fff" stroke-linecap="round" stroke-linejoin="round" stroke-width="1"/>
      <path id="Path_208" data-name="Path 208" d="M378.049,455.157l34.321,13.059,28.616-23.582-34.394-12.864Z" transform="translate(-371.991 -395.357)" fill="none" stroke="#fff" stroke-linecap="round" stroke-linejoin="round" stroke-width="1"/>
      <path id="Path_209" data-name="Path 209" d="M389.4,413.442l5.983,36.412,34.394,12.864L423.8,426.306Z" transform="translate(-360.787 -413.442)" fill="none" stroke="#fff" stroke-linecap="round" stroke-linejoin="round" stroke-width="1"/>
    </g>
    <g id="Group_113" data-name="Group 113" transform="translate(402.266 72.061)">
      <g id="Group_112" data-name="Group 112">
        <path id="Path_210" data-name="Path 210" d="M227.916,100.866A35.344,35.344,0,0,1,285.977,62.95L272.7,75.914a16.775,16.775,0,1,0-24.009,23.435l-13.276,12.964A35.327,35.327,0,0,1,227.916,100.866Z" transform="translate(-225.367 -52.318)" fill="none" stroke="#fff" stroke-linecap="round" stroke-linejoin="round" stroke-width="1"/>
      </g>
    </g>
    <g id="Group_115" data-name="Group 115" transform="translate(792.636 564.108)">
      <g id="Group_114" data-name="Group 114">
        <path id="Path_211" data-name="Path 211" d="M427.568,304.233a21.914,21.914,0,0,1,31.7,29.045l-9.827-5.98a10.4,10.4,0,1,0-17.77-10.82l-9.827-5.98A21.825,21.825,0,0,1,427.568,304.233Z" transform="translate(-421.846 -299.972)" fill="none" stroke="#fff" stroke-linecap="round" stroke-linejoin="round" stroke-width="1"/>
      </g>
    </g>
    <g id="Group_117" data-name="Group 117" transform="translate(167.134 844.294)">
      <g id="Group_116" data-name="Group 116">
        <path id="Path_212" data-name="Path 212" d="M107.072,461.394a21.914,21.914,0,0,1,42.657-5.4l-10.918,3.626a10.4,10.4,0,0,0-19.743,6.556l-10.918,3.628A21.881,21.881,0,0,1,107.072,461.394Z" transform="translate(-107.021 -440.995)" fill="none" stroke="#fff" stroke-linecap="round" stroke-linejoin="round" stroke-width="1"/>
      </g>
    </g>
    <g id="Group_119" data-name="Group 119" transform="translate(1182.239 84.068)">
      <g id="Group_118" data-name="Group 118" transform="translate(0)">
        <path id="Path_213" data-name="Path 213" d="M660.433,66.749a21.914,21.914,0,0,1-42.494-6.555l11.494-.481a10.4,10.4,0,1,0,20.784-.87l11.5-.483A21.9,21.9,0,0,1,660.433,66.749Z" transform="translate(-617.939 -58.361)" fill="none" stroke="#fff" stroke-linecap="round" stroke-linejoin="round" stroke-width="1"/>
      </g>
    </g>
    <path id="Path_214" data-name="Path 214" d="M179.834,51.35" transform="translate(131.966 18.788)" fill="none" stroke="#fff" stroke-linecap="round" stroke-linejoin="round" stroke-width="1"/>
    <path id="Path_215" data-name="Path 215" d="M264.267,111.777" transform="translate(215.287 78.419)" fill="none" stroke="#fff" stroke-linecap="round" stroke-linejoin="round" stroke-width="1"/>
    <path id="Path_216" data-name="Path 216" d="M285.789,136.61" transform="translate(236.525 102.925)" fill="none" stroke="#fff" stroke-linecap="round" stroke-linejoin="round" stroke-width="1"/>
    <path id="Path_217" data-name="Path 217" d="M370.221,46.383" transform="translate(319.845 13.887)" fill="none" stroke="#fff" stroke-linecap="round" stroke-linejoin="round" stroke-width="1"/>
    <path id="Path_218" data-name="Path 218" d="M568.886,59.628" transform="translate(515.893 26.957)" fill="none" stroke="#fff" stroke-linecap="round" stroke-linejoin="round" stroke-width="1"/>
    <path id="Path_219" data-name="Path 219" d="M460.448,146.544" transform="translate(408.884 112.728)" fill="none" stroke="#fff" stroke-linecap="round" stroke-linejoin="round" stroke-width="1"/>
    <path id="Path_220" data-name="Path 220" d="M510.942,298.026" transform="translate(458.712 262.215)" fill="none" stroke="#fff" stroke-linecap="round" stroke-linejoin="round" stroke-width="1"/>
    <path id="Path_221" data-name="Path 221" d="M554.814,408.947" transform="translate(502.006 371.674)" fill="none" stroke="#fff" stroke-linecap="round" stroke-linejoin="round" stroke-width="1"/>
    <path id="Path_222" data-name="Path 222" d="M512.6,450.335" transform="translate(460.347 412.517)" fill="none" stroke="#fff" stroke-linecap="round" stroke-linejoin="round" stroke-width="1"/>
    <path id="Path_223" data-name="Path 223" d="M404.16,370.869" transform="translate(353.337 334.098)" fill="none" stroke="#fff" stroke-linecap="round" stroke-linejoin="round" stroke-width="1"/>
    <path id="Path_224" data-name="Path 224" d="M323.866,428.813" transform="translate(274.101 391.279)" fill="none" stroke="#fff" stroke-linecap="round" stroke-linejoin="round" stroke-width="1"/>
    <path id="Path_225" data-name="Path 225" d="M212.945,336.931" transform="translate(164.641 300.607)" fill="none" stroke="#fff" stroke-linecap="round" stroke-linejoin="round" stroke-width="1"/>
    <path id="Path_226" data-name="Path 226" d="M48.219,445.369" transform="translate(2.085 407.617)" fill="none" stroke="#fff" stroke-linecap="round" stroke-linejoin="round" stroke-width="1"/>
    <path id="Path_227" data-name="Path 227" d="M664.08,248.359" transform="translate(609.833 213.202)" fill="none" stroke="#fff" stroke-linecap="round" stroke-linejoin="round" stroke-width="1"/>
    <path id="Path_228" data-name="Path 228" d="M628.486,174.688" transform="translate(574.708 140.501)" fill="none" stroke="#fff" stroke-linecap="round" stroke-linejoin="round" stroke-width="1"/>
    <path id="Path_229" data-name="Path 229" d="M722.024,32.311" transform="translate(667.014)" fill="none" stroke="#fff" stroke-linecap="round" stroke-linejoin="round" stroke-width="1"/>
    <path id="Path_230" data-name="Path 230" d="M703.813,388.252" transform="translate(649.043 351.252)" fill="none" stroke="#fff" stroke-linecap="round" stroke-linejoin="round" stroke-width="1"/>
    <path id="Path_231" data-name="Path 231" d="M120.235,291.4" transform="translate(73.152 255.679)" fill="none" stroke="#fff" stroke-linecap="round" stroke-linejoin="round" stroke-width="1"/>
    <path id="Path_232" data-name="Path 232" d="M77.191,298.015V296.37" transform="translate(30.675 260.58)" fill="none" stroke="#fff" stroke-linecap="round" stroke-linejoin="round" stroke-width="1"/>
    <path id="Path_233" data-name="Path 233" d="M100.368,142.4" transform="translate(53.547 108.644)" fill="none" stroke="#fff" stroke-linecap="round" stroke-linejoin="round" stroke-width="1"/>
  </g>
</svg>
