<svg width="370" height="169" viewBox="0 0 370 169" fill="none" xmlns="http://www.w3.org/2000/svg">
<g clip-path="url(#clip0_14_39)">
<path d="M61.59 114L66.1 114.16C66.7 111.967 68.0767 107.797 70.23 101.65C72.39 95.4999 73.91 91.4299 74.82 89.4499C64.4 99.6632 56.3367 105.813 50.63 107.9C47.6 109.029 44.3936 109.612 41.16 109.62C35.8267 109.62 31.72 107.793 28.84 104.14C25.96 100.487 24.51 95.3799 24.49 88.8199C24.49 79.4399 28.6467 66.9032 36.96 51.2099C45.2733 35.5166 54.7366 23.2432 65.35 14.3899L71.35 20.1699C49.1166 45.0899 38 65.8866 38 82.5599C38 92.2599 41.6667 97.1099 49 97.1099C56.3333 97.1099 63.4366 92.9399 70.31 84.5999C77.2233 76.2599 84.3833 63.3332 91.79 45.8199C94.8033 38.6066 97.1066 33.8632 98.7 31.5899C100.3 29.2899 101.86 28.1499 103.36 28.1499C104.014 28.1152 104.669 28.2224 105.278 28.464C105.887 28.7056 106.437 29.0761 106.89 29.5499C107.78 30.5946 108.238 31.9393 108.17 33.3099C108.17 39.9766 103.563 49.8799 94.35 63.0199C87.93 76.7799 81.48 93.8766 75 114.31C80.1543 114.731 85.2133 115.942 90 117.9L88.5 123.22L72.57 120.87C66.6633 135.89 59.5267 147.123 51.16 154.57C42.9438 161.973 32.2173 165.97 21.16 165.75C15.16 165.75 10.1266 164.057 6.05998 160.67C4.14338 159.151 2.60055 157.212 1.55002 155.004C0.499488 152.795 -0.0307704 150.375 -1.64846e-05 147.93C-1.64846e-05 138.537 6.05998 130.537 18.18 123.93C30.3 117.323 44.77 114.013 61.59 114ZM27.94 155C36.06 155 43.2467 151.587 49.5 144.76C55.8039 137.852 60.5449 129.666 63.4 120.76C49.98 120.76 38.7133 123.13 29.6 127.87C20.4866 132.61 15.9267 138.357 15.92 145.11C15.8872 146.478 16.1759 147.835 16.7629 149.072C17.35 150.309 18.2189 151.39 19.3 152.23C21.7679 154.134 24.8248 155.114 27.94 155V155Z" fill="#FF9801"/>
<path d="M136 69C138.607 73.5112 139.954 78.64 139.9 83.85C139.952 92.1578 136.96 100.197 131.49 106.45C125.883 113.07 119.273 116.38 111.66 116.38C105.847 116.38 101.313 114.633 98.06 111.14C94.8067 107.647 93.1667 102.813 93.14 96.64C93.14 86.7333 96.8467 77.8467 104.26 69.98C111.673 62.1133 119.987 58.1767 129.2 58.17C130.402 58.1427 131.605 58.1962 132.8 58.33L133.25 63.49C125.25 63.49 118.583 65.8867 113.25 70.68C110.647 72.982 108.581 75.8276 107.199 79.0157C105.817 82.2037 105.151 85.6565 105.25 89.13C105.25 93.61 106.3 97.2333 108.4 100C110.5 102.767 113.58 104.147 117.64 104.14C121.7 104.14 124.93 102.263 127.33 98.51C129.818 94.5598 131.094 89.9673 131 85.3C131.06 80.535 130.088 75.8134 128.15 71.46L136 69Z" fill="#FF9801"/>
<path d="M183.58 93.1999L187.19 96.3199C184.838 101.986 180.798 106.79 175.62 110.08C170.287 113.52 165.153 115.24 160.22 115.24C157.945 115.312 155.68 114.921 153.562 114.089C151.443 113.256 149.517 112.001 147.9 110.4C144.633 107.173 143 102.743 143 97.1099C143 91.4766 145.353 85.3766 150.06 78.8099C154.891 72.1297 161.119 66.5812 168.31 62.5499C175.77 58.2699 183.103 56.1332 190.31 56.1399C191.31 56.1399 192.81 56.2399 194.82 56.4499L194.37 62.5499C183.37 63.0699 174.247 66.5532 167 72.9999C159.753 79.4466 156.117 86.3366 156.09 93.6699C156.032 95.0111 156.241 96.3505 156.705 97.6104C157.168 98.8703 157.877 100.026 158.79 101.01C159.703 101.949 160.804 102.685 162.02 103.171C163.236 103.657 164.541 103.881 165.85 103.83C170.463 103.83 176.373 100.287 183.58 93.1999Z" fill="#FF9801"/>
<path d="M258.39 99.45L262.15 102.89C256.337 112.797 250.177 117.75 243.67 117.75C239.67 117.75 235.563 114.673 231.35 108.52C227.137 102.367 225.02 97.31 225 93.35C225 90.85 228.607 88.35 235.82 85.85C238.546 84.8978 241.066 83.4389 243.25 81.55C245.51 79.6233 246.64 77.6233 246.64 75.55C246.705 74.6822 246.593 73.8101 246.311 72.9868C246.029 72.1634 245.583 71.4059 245 70.76C244.449 70.2144 243.792 69.7875 243.07 69.5054C242.347 69.2234 241.575 69.0922 240.8 69.12C229.78 70.16 218.26 85.5867 206.24 115.4L197.08 112.12C197.08 107.64 202.913 89.5 214.58 57.7C226.247 25.9 234.54 6.66667 239.46 0L246.83 2.81C233.303 27.31 221.97 55.77 212.83 88.19C220.677 76.0033 227.4 67.8733 233 63.8C238.6 59.7267 243.96 57.6933 249.08 57.7C250.462 57.6418 251.841 57.8793 253.124 58.3967C254.407 58.914 255.565 59.6993 256.52 60.7C258.403 62.7691 259.397 65.4947 259.29 68.29C259.329 71.2207 258.579 74.108 257.12 76.65C255.549 79.2729 253.419 81.5164 250.88 83.22C246.32 86.3091 241.494 88.9863 236.46 91.22C237.36 96.12 238.913 99.8233 241.12 102.33C242.016 103.472 243.155 104.4 244.454 105.049C245.752 105.697 247.179 106.049 248.63 106.08C250.13 106.027 253.383 103.817 258.39 99.45Z" fill="#FF9801"/>
<path d="M307.82 97L311.27 99.8099C307.951 104.489 303.576 108.319 298.5 110.99C293.709 113.796 288.281 115.331 282.73 115.45C277.617 115.45 273.51 113.887 270.41 110.76C267.31 107.633 265.757 103.517 265.75 98.41C265.75 88.8166 270.633 79.3799 280.4 70.0999C290.167 60.8199 300.057 56.1833 310.07 56.1899C316.683 56.1899 319.99 58.9 319.99 64.32C319.99 69.9533 316.507 75.62 309.54 81.32C302.573 87.0199 292.783 92.2466 280.17 97C280.972 99.2593 282.439 101.222 284.38 102.63C286.073 103.9 288.124 104.6 290.24 104.63C294.54 104.617 300.4 102.073 307.82 97ZM279.42 92.3099C286.897 89.7148 293.94 86.0064 300.31 81.3099C306.11 76.9299 309.013 72.9299 309.02 69.3099C309.023 68.6417 308.891 67.9797 308.634 67.3631C308.376 66.7464 307.997 66.1877 307.52 65.72C307.085 65.2304 306.553 64.8376 305.957 64.5672C305.361 64.2967 304.715 64.1545 304.06 64.15C299.353 64.15 294.27 67.2 288.81 73.3C283.35 79.4 280.22 85.72 279.42 92.26V92.3099Z" fill="#FF9801"/>
<path d="M358.14 97.8899L361.45 101.8C359.171 105.619 356.065 108.879 352.36 111.34C349.191 113.508 345.459 114.704 341.62 114.78C340.048 114.861 338.476 114.618 337.001 114.066C335.527 113.514 334.182 112.664 333.05 111.57C330.95 109.43 329.9 106.483 329.9 102.73C329.9 93.9833 333.057 81.8933 339.37 66.4599C334.157 67.3097 329.018 68.5635 324 70.2099L323 64.1099L322.85 63.9599C329.173 61.4029 335.78 59.6167 342.53 58.6399C343.33 57.0666 345.133 53.2599 347.94 47.2199C353.553 35.2199 357.553 27.4533 359.94 23.9199L366.4 26.5799C365.387 28.8799 363.633 32.7133 361.14 38.0799C358.647 43.4466 355.843 49.5166 352.73 56.2899C357.23 55.9799 360.79 55.8199 363.39 55.8199C365.465 55.706 367.533 56.137 369.39 57.0699V63.7999C367.385 63.4371 365.347 63.2797 363.31 63.3299C358.553 63.5247 353.812 63.9955 349.11 64.7399C343.203 78.4999 340.25 88.4999 340.25 94.7399C340.17 96.9273 340.949 99.0593 342.42 100.68C343.172 101.468 344.084 102.086 345.095 102.491C346.106 102.897 347.192 103.08 348.28 103.03C350.76 103.043 354.047 101.33 358.14 97.8899Z" fill="#FF9801"/>
<path d="M139.45 152.8L142.97 152.52C143.078 153.659 143.478 154.75 144.13 155.69C144.867 156.609 145.848 157.302 146.96 157.69C148.335 158.216 149.798 158.474 151.27 158.45C152.551 158.474 153.826 158.278 155.04 157.87C155.983 157.583 156.823 157.031 157.46 156.28C157.973 155.661 158.256 154.884 158.26 154.08C158.269 153.303 157.995 152.55 157.49 151.96C156.794 151.241 155.922 150.717 154.96 150.44C154.2 150.17 152.53 149.76 149.96 149.19C148.1 148.84 146.28 148.3 144.53 147.58C143.336 147.058 142.301 146.23 141.53 145.18C140.871 144.244 140.521 143.125 140.53 141.98C140.533 140.665 140.957 139.386 141.74 138.33C142.628 137.134 143.859 136.238 145.27 135.76C146.922 135.154 148.671 134.856 150.43 134.88C152.311 134.848 154.181 135.159 155.95 135.8C157.415 136.324 158.692 137.271 159.62 138.52C160.467 139.686 160.948 141.079 161 142.52L157.43 142.77C157.383 142.053 157.186 141.355 156.852 140.719C156.518 140.083 156.054 139.525 155.49 139.08C154.029 138.15 152.308 137.712 150.58 137.83C148.862 137.695 147.144 138.093 145.66 138.97C145.197 139.262 144.814 139.664 144.545 140.14C144.276 140.617 144.13 141.153 144.12 141.7C144.112 142.139 144.206 142.573 144.395 142.969C144.584 143.365 144.863 143.711 145.21 143.98C145.93 144.58 147.8 145.193 150.82 145.82C152.938 146.194 155.022 146.742 157.05 147.46C158.475 147.993 159.729 148.902 160.68 150.09C161.461 151.149 161.872 152.435 161.85 153.75C161.842 155.144 161.39 156.5 160.56 157.62C159.623 158.894 158.343 159.875 156.87 160.45C155.147 161.139 153.305 161.479 151.45 161.45C149.273 161.518 147.102 161.179 145.05 160.45C143.431 159.846 142.023 158.783 141 157.39C140.032 156.051 139.492 154.451 139.45 152.8V152.8Z" fill="#FF9801"/>
<path d="M173.68 158.24L174.18 161.04C173.32 161.211 172.447 161.305 171.57 161.32C170.567 161.368 169.567 161.18 168.65 160.77C168.018 160.468 167.505 159.965 167.19 159.34C166.826 158.132 166.684 156.868 166.77 155.61V144.88H164.24V142.42H166.77V137.8L170.21 135.9V142.42H173.68V144.88H170.21V155.78C170.17 156.366 170.23 156.955 170.39 157.52C170.518 157.783 170.724 157.999 170.98 158.14C171.349 158.311 171.754 158.39 172.16 158.37C172.669 158.357 173.176 158.313 173.68 158.24V158.24Z" fill="#FF9801"/>
<path d="M190.06 161.07V158.33C189.323 159.347 188.348 160.166 187.219 160.718C186.091 161.269 184.845 161.534 183.59 161.49C182.437 161.498 181.293 161.284 180.22 160.86C179.323 160.539 178.523 159.991 177.9 159.27C177.372 158.578 177.01 157.774 176.84 156.92C176.667 155.947 176.593 154.958 176.62 153.97V142.42H180.08V152.76C180.04 153.877 180.11 154.996 180.29 156.1C180.483 156.916 180.975 157.63 181.67 158.1C182.45 158.591 183.359 158.838 184.28 158.81C185.299 158.816 186.304 158.565 187.2 158.08C188.05 157.649 188.73 156.945 189.13 156.08C189.556 154.912 189.747 153.672 189.69 152.43V142.43H193.15V161.08L190.06 161.07Z" fill="#FF9801"/>
<path d="M211.43 161.07V158.72C210.794 159.628 209.937 160.359 208.939 160.844C207.942 161.329 206.837 161.551 205.73 161.49C204.151 161.504 202.6 161.078 201.25 160.26C199.886 159.445 198.786 158.254 198.08 156.83C197.307 155.254 196.923 153.515 196.96 151.76C196.935 150.019 197.275 148.291 197.96 146.69C198.586 145.236 199.658 144.017 201.02 143.21C202.392 142.393 203.963 141.971 205.56 141.99C206.695 141.969 207.818 142.216 208.84 142.71C209.751 143.144 210.554 143.776 211.19 144.56V135.32H214.62V161.07H211.43ZM200.51 151.76C200.36 153.691 200.949 155.608 202.16 157.12C202.644 157.676 203.242 158.121 203.913 158.427C204.584 158.732 205.313 158.89 206.05 158.89C206.775 158.9 207.494 158.754 208.158 158.462C208.822 158.171 209.416 157.74 209.9 157.2C210.96 156.07 211.48 154.34 211.48 152.02C211.48 149.47 210.95 147.6 209.87 146.4C209.376 145.825 208.762 145.367 208.07 145.057C207.379 144.748 206.627 144.595 205.87 144.61C205.142 144.599 204.42 144.747 203.755 145.044C203.09 145.341 202.498 145.78 202.02 146.33C201.013 147.477 200.51 149.287 200.51 151.76V151.76Z" fill="#FF9801"/>
<path d="M219.55 168.25L219.17 165.25C219.823 165.421 220.495 165.515 221.17 165.53C221.802 165.555 222.431 165.435 223.01 165.18C223.463 164.945 223.852 164.602 224.14 164.18C224.544 163.429 224.879 162.642 225.14 161.83C225.21 161.65 225.31 161.39 225.45 161.06L217.72 142.37H221.44L225.68 153.17C226.23 154.54 226.68 155.98 227.16 157.49C227.555 156.048 228.029 154.63 228.58 153.24L233 142.42H236.45L228.7 161.42C228.148 162.872 227.5 164.285 226.76 165.65C226.257 166.576 225.532 167.363 224.65 167.94C223.791 168.446 222.807 168.699 221.81 168.67C221.039 168.648 220.277 168.507 219.55 168.25V168.25Z" fill="#FF9801"/>
<path d="M244.75 161.07L255.55 135.32H259.55L271.07 161.07H266.83L263.54 153.27H251.79L248.7 161.07H244.75ZM252.87 150.5H262.4L259.47 143.36C258.57 141.2 257.91 139.42 257.47 138.02C257.106 139.7 256.601 141.345 255.96 142.94L252.87 150.5Z" fill="#FF9801"/>
<path d="M276.44 161.07H273.24V135.32H276.69V144.51C277.373 143.697 278.23 143.049 279.198 142.613C280.165 142.176 281.219 141.964 282.28 141.99C283.498 141.987 284.704 142.225 285.83 142.69C286.896 143.109 287.846 143.778 288.6 144.64C289.349 145.525 289.925 146.543 290.3 147.64C290.714 148.86 290.921 150.141 290.91 151.43C290.91 154.63 290.047 157.1 288.32 158.84C287.52 159.682 286.554 160.349 285.484 160.8C284.413 161.251 283.261 161.475 282.1 161.46C281.002 161.502 279.911 161.272 278.924 160.79C277.936 160.309 277.083 159.591 276.44 158.7V161.07ZM276.44 151.6C276.313 153.278 276.66 154.959 277.44 156.45C277.897 157.207 278.545 157.831 279.319 158.26C280.093 158.688 280.966 158.905 281.85 158.89C282.595 158.891 283.331 158.731 284.008 158.42C284.684 158.109 285.286 157.656 285.77 157.09C286.974 155.574 287.563 153.661 287.42 151.73C287.42 149.29 286.893 147.49 285.84 146.33C285.366 145.779 284.778 145.338 284.117 145.038C283.455 144.737 282.736 144.584 282.01 144.59C281.265 144.589 280.529 144.749 279.852 145.06C279.176 145.371 278.574 145.824 278.09 146.39C276.886 147.849 276.281 149.712 276.4 151.6H276.44Z" fill="#FF9801"/>
<path d="M294.72 161.07V142.42H297.83V145.24C298.359 144.217 299.111 143.325 300.03 142.63C300.69 142.21 301.457 141.988 302.24 141.99C303.49 142.008 304.714 142.352 305.79 142.99L304.6 146C303.829 145.559 302.958 145.322 302.07 145.31C301.354 145.307 300.655 145.527 300.07 145.94C299.46 146.358 299.007 146.966 298.78 147.67C298.386 148.857 298.19 150.1 298.2 151.35V161.12L294.72 161.07Z" fill="#FF9801"/>
<path d="M306.21 151.74C306.21 148.29 307.21 145.74 309.35 144.07C311.184 142.66 313.448 141.926 315.76 141.99C318.295 141.889 320.766 142.799 322.63 144.52C323.546 145.431 324.258 146.526 324.718 147.733C325.178 148.94 325.377 150.231 325.3 151.52C325.4 153.477 324.994 155.426 324.12 157.18C323.321 158.571 322.122 159.689 320.68 160.39C319.154 161.156 317.467 161.547 315.76 161.53C313.212 161.64 310.724 160.738 308.84 159.02C307.09 157.31 306.21 154.89 306.21 151.74ZM309.76 151.74C309.612 153.682 310.221 155.607 311.46 157.11C312.019 157.681 312.686 158.135 313.423 158.446C314.159 158.756 314.951 158.915 315.75 158.915C316.549 158.915 317.34 158.756 318.077 158.446C318.814 158.135 319.481 157.681 320.04 157.11C321.18 155.923 321.75 154.103 321.75 151.65C321.89 149.742 321.272 147.855 320.03 146.4C319.471 145.83 318.805 145.377 318.069 145.068C317.333 144.759 316.543 144.6 315.745 144.6C314.947 144.6 314.157 144.759 313.421 145.068C312.685 145.377 312.019 145.83 311.46 146.4C310.222 147.892 309.612 149.807 309.76 151.74Z" fill="#FF9801"/>
<path d="M342.29 158.77C341.181 159.666 339.935 160.379 338.6 160.88C337.373 161.294 336.085 161.5 334.79 161.49C332.947 161.612 331.12 161.081 329.63 159.99C328.725 159.236 328.115 158.186 327.908 157.026C327.702 155.866 327.911 154.67 328.5 153.65C328.942 152.908 329.556 152.284 330.29 151.83C331.061 151.372 331.897 151.034 332.77 150.83C333.784 150.616 334.809 150.459 335.84 150.36C337.923 150.188 339.985 149.823 342 149.27C342 148.84 342 148.56 342 148.45C342.052 147.949 341.989 147.442 341.816 146.969C341.643 146.496 341.363 146.069 341 145.72C339.849 144.928 338.463 144.551 337.07 144.65C335.82 144.562 334.571 144.833 333.47 145.43C332.59 146.124 331.982 147.104 331.75 148.2L328.38 147.78C328.619 146.604 329.137 145.504 329.89 144.57C330.722 143.678 331.779 143.029 332.95 142.69C334.445 142.225 336.005 142.003 337.57 142.03C339.005 141.987 340.437 142.179 341.81 142.6C342.717 142.859 343.542 143.344 344.21 144.01C344.743 144.624 345.111 145.364 345.28 146.16C345.431 147.125 345.491 148.103 345.46 149.08V153.29C345.405 155.153 345.479 157.017 345.68 158.87C345.83 159.664 346.125 160.423 346.55 161.11H343C342.61 160.385 342.369 159.589 342.29 158.77V158.77ZM342 151.71C340.167 152.305 338.277 152.704 336.36 152.9C335.341 153.004 334.335 153.215 333.36 153.53C332.82 153.726 332.348 154.073 332 154.53C331.684 154.966 331.516 155.492 331.52 156.03C331.511 156.435 331.597 156.837 331.771 157.203C331.944 157.569 332.201 157.89 332.52 158.14C333.414 158.761 334.493 159.061 335.58 158.99C336.81 159.012 338.028 158.737 339.13 158.19C340.101 157.714 340.902 156.949 341.42 156C341.842 155.002 342.03 153.921 341.97 152.84L342 151.71Z" fill="#FF9801"/>
<path d="M363.72 161.07V158.72C363.085 159.63 362.228 160.362 361.23 160.847C360.233 161.332 359.127 161.553 358.02 161.49C356.441 161.504 354.89 161.078 353.54 160.26C352.178 159.442 351.078 158.252 350.37 156.83C349.597 155.254 349.213 153.515 349.25 151.76C349.22 150.018 349.561 148.29 350.25 146.69C350.87 145.235 351.938 144.015 353.3 143.21C354.675 142.392 356.25 141.97 357.85 141.99C358.985 141.97 360.108 142.217 361.13 142.71C362.04 143.142 362.84 143.774 363.47 144.56V135.32H366.9V161.07H363.72ZM352.8 151.76C352.65 153.691 353.239 155.608 354.45 157.12C354.934 157.676 355.532 158.121 356.203 158.427C356.874 158.732 357.603 158.89 358.34 158.89C359.065 158.901 359.785 158.755 360.449 158.464C361.113 158.172 361.707 157.741 362.19 157.2C363.36 155.739 363.929 153.886 363.78 152.02C363.78 149.467 363.24 147.593 362.16 146.4C361.666 145.825 361.052 145.367 360.36 145.057C359.669 144.748 358.917 144.595 358.16 144.61C357.432 144.599 356.71 144.747 356.045 145.044C355.38 145.341 354.788 145.78 354.31 146.33C353.303 147.477 352.8 149.287 352.8 151.76Z" fill="#FF9801"/>
</g>
<defs>
<clipPath id="clip0_14_39">
<rect width="369.41" height="168.64" fill="white"/>
</clipPath>
</defs>
</svg>
