<?xml version="1.0" encoding="UTF-8"?><svg id="Layer_1" xmlns="http://www.w3.org/2000/svg" viewBox="0 0 335.22 236.53"><defs><style>.cls-1,.cls-2{fill-rule:evenodd;}.cls-1,.cls-3{fill:#419794;}.cls-2{fill:#fdb933;}</style></defs><path class="cls-1" d="M214.68,165.98c0,4.3,1.03,7.59,3.04,9.88,2.05,2.28,4.55,3.41,7.52,3.41s5.5-1.13,7.52-3.41c2.02-2.28,3.03-5.6,3.03-9.95s-1.01-7.52-3.03-9.8c-2.03-2.29-4.53-3.41-7.52-3.41s-5.47,1.12-7.52,3.41c-2.02,2.28-3.04,5.57-3.04,9.87m32.86-1.32v2.4c-.26,6.03-2.34,11.07-6.31,15.12-4.22,4.31-9.55,6.46-15.96,6.46-3.97,0-7.74-.89-11.35-2.69-3.61-1.8-6.33-4.44-8.21-7.91-1.87-3.46-2.81-7.69-2.81-12.67,0-3.82,.94-7.5,2.81-11.06,1.88-3.58,4.54-6.31,7.99-8.17,3.41-1.88,7.25-2.83,11.49-2.83,6.54,0,11.9,2.13,16.08,6.39,3.93,4.01,6,8.98,6.26,14.95"/><path class="cls-1" d="M49.34,163.99l-8.3-22.23-8.11,22.23h16.41Zm22.14,23.67h-13.14l-5.18-13.55H29.23l-4.94,13.55H11.49l23.25-59.86h12.91l23.85,59.86Z"/><path class="cls-1" d="M84.69,165.23c0,4.88,.96,8.46,2.9,10.79,1.92,2.33,4.28,3.48,7.06,3.48s4.88-1.07,6.65-3.19c1.77-2.14,2.66-5.64,2.66-10.51,0-4.53-.91-7.9-2.75-10.11-1.82-2.19-4.08-3.3-6.76-3.3s-5.13,1.09-6.99,3.25c-1.83,2.17-2.76,5.37-2.76,9.61m-11.32-20.95h10.72v6.39c1.38-2.18,3.26-3.96,5.64-5.31,2.37-1.37,5.01-2.04,7.88-2.04,5.04,0,9.32,1.97,12.82,5.92,3.53,3.96,5.28,9.44,5.28,16.51s-1.78,12.86-5.32,16.87c-3.54,4.01-7.83,6.03-12.88,6.03-2.4,0-4.57-.48-6.53-1.42-1.94-.96-4.01-2.6-6.14-4.91v38.22h-11.47v-76.25Z"/><path class="cls-1" d="M129.7,165.98c0,4.3,1.03,7.59,3.06,9.88,2.03,2.28,4.53,3.41,7.52,3.41s5.5-1.13,7.51-3.41c2.03-2.28,3.05-5.6,3.05-9.95s-1.02-7.52-3.05-9.8c-2-2.29-4.52-3.41-7.51-3.41s-5.49,1.12-7.52,3.41c-2.03,2.28-3.06,5.57-3.06,9.87m-11.77-.6c0-3.82,.95-7.5,2.83-11.06,1.86-3.57,4.53-6.31,7.95-8.17,3.43-1.88,7.27-2.82,11.51-2.82,6.56,0,11.9,2.13,16.09,6.39,4.18,4.26,6.28,9.65,6.28,16.15s-2.12,11.99-6.34,16.32c-4.22,4.31-9.53,6.46-15.95,6.46-3.96,0-7.75-.89-11.34-2.69-3.6-1.8-6.34-4.44-8.2-7.91-1.88-3.46-2.83-7.69-2.83-12.67"/><rect class="cls-3" x="167.36" y="127.81" width="11.47" height="59.86"/><rect class="cls-3" x="186.42" y="127.81" width="11.46" height="59.86"/><polygon class="cls-1" points="98.34 139.33 77.65 139.33 116.74 95.31 116.74 99.38 133.86 99.38 133.86 115.83 118.71 115.83 98.34 139.33"/><polygon class="cls-1" points="118.83 117.68 133.13 117.68 133.13 134.45 125.97 140.02 118.83 134.45 118.83 117.68"/><polygon class="cls-1" points="110.36 71.72 140.68 71.72 133.13 83.42 133.13 97.5 118.82 97.5 118.82 83.42 110.36 71.72"/><path class="cls-1" d="M54.11,117.12h-18.66V48.21h39.57l22.05,21.81-42.96,47.1Zm-10.98-44.99h6.14v6.14h5.41v-6.14h6.15v-5.4h-6.15v-6.17h-5.41v6.17h-6.14v5.4Z"/><path class="cls-1" d="M90.53,92.13l-3.07-3.08h6.15l-3.08,3.08Zm-33.98,27.68v20.21l20.88-22.9h9.79l4.08-3.13,3.01-10.56h4.04v-29.45l-41.79,45.83Z"/><path class="cls-1" d="M87.08,117.11s3.32,.35,4.21-3.13l-.73-1.37-4.03,3.48,.56,1.01Z"/><path class="cls-2" d="M108.27,31.04c-.13-.05-.32-.1-.46-.14-24.17-6.21-25.65-17.68-24.99-21.77-1.7,4.7-1.58,13.95,.23,19.46,2.9,2.91,12.51,7.16,21.82,8.07,1,.14,1.98,.31,2.94,.52,24.45,4.58,26.43,24.57,17.44,34.15,4.52-3.19,7.37-8.99,7.65-15.24v-1.77c-.43-9.74-7.32-20.16-24.63-23.28"/><path class="cls-2" d="M111.46,44.45c-1.24-.17-2.39-.41-3.44-.6-17.72-3.27-19.33-5.93-20.21-6.21-.7,3.04,3.67,19.47,20.21,21.56h.13c15.61,1.88,17.04,9.65,17.13,12.09,0,0,12.42-22.42-13.82-26.84"/><g><path class="cls-3" d="M121.03,194.38c1.77,.8,3.14,1.94,4.09,3.41,.96,1.47,1.44,3.22,1.44,5.24s-.48,3.73-1.44,5.22-2.32,2.63-4.09,3.41c-1.77,.79-3.86,1.18-6.27,1.18h-5.47v7.49h-6.29v-27.16h11.76c2.41,0,4.49,.4,6.27,1.2Zm-2.31,12.12c.98-.81,1.47-1.97,1.47-3.47s-.49-2.7-1.47-3.51c-.98-.81-2.42-1.22-4.31-1.22h-5.12v9.43h5.12c1.89,0,3.32-.41,4.31-1.22Z"/><path class="cls-3" d="M154.38,193.18v27.16h-6.29v-11.14h-12.34v11.14h-6.29v-27.16h6.29v10.71h12.34v-10.71h6.29Z"/><path class="cls-3" d="M177.16,214.52h-12.61l-2.41,5.82h-6.44l12.11-27.16h6.21l12.14,27.16h-6.6l-2.41-5.82Zm-1.98-4.77l-4.31-10.4-4.31,10.4h8.61Z"/><path class="cls-3" d="M204.75,220.34l-5.24-7.57h-5.78v7.57h-6.29v-27.16h11.76c2.41,0,4.49,.4,6.27,1.2,1.77,.8,3.14,1.94,4.09,3.41,.96,1.47,1.43,3.22,1.43,5.24s-.48,3.76-1.45,5.22c-.97,1.46-2.35,2.58-4.13,3.36l6.09,8.73h-6.75Zm-1.59-20.82c-.98-.81-2.42-1.22-4.31-1.22h-5.12v9.47h5.12c1.89,0,3.32-.41,4.31-1.24,.98-.83,1.47-1.99,1.47-3.49s-.49-2.7-1.47-3.51Z"/><path class="cls-3" d="M239.12,220.34l-.04-16.3-7.99,13.43h-2.83l-7.95-13.08v15.95h-5.9v-27.16h5.2l10.17,16.88,10.01-16.88h5.16l.08,27.16h-5.9Z"/><path class="cls-3" d="M267.79,214.52h-12.61l-2.41,5.82h-6.44l12.11-27.16h6.21l12.14,27.16h-6.6l-2.41-5.82Zm-1.98-4.77l-4.31-10.4-4.31,10.4h8.61Z"/><path class="cls-3" d="M283.18,219c-2.24-1.2-4-2.87-5.28-5-1.28-2.13-1.92-4.55-1.92-7.24s.64-5.1,1.92-7.24,3.04-3.8,5.28-5c2.24-1.2,4.75-1.8,7.55-1.8,2.35,0,4.48,.41,6.38,1.24s3.5,2.02,4.79,3.57l-4.04,3.73c-1.84-2.12-4.11-3.18-6.83-3.18-1.68,0-3.18,.37-4.5,1.11-1.32,.74-2.35,1.77-3.09,3.09-.74,1.32-1.11,2.82-1.11,4.5s.37,3.18,1.11,4.5c.74,1.32,1.77,2.35,3.09,3.09,1.32,.74,2.82,1.11,4.5,1.11,2.72,0,4.99-1.07,6.83-3.22l4.04,3.72c-1.29,1.58-2.9,2.78-4.81,3.61-1.91,.83-4.05,1.24-6.4,1.24-2.77,0-5.27-.6-7.51-1.8Z"/><path class="cls-3" d="M317.34,210.72v9.62h-6.29v-9.7l-10.52-17.46h6.67l7.26,12.07,7.26-12.07h6.17l-10.55,17.54Z"/></g></svg>