<svg width="166" height="35" viewBox="0 0 166 35" fill="none" xmlns="http://www.w3.org/2000/svg">
<path d="M0.609537 5.44351H0V4.99634H1.69125V5.44351H1.07313V7.28381H0.609537V5.44351Z" fill="#ED1B06"/>
<path d="M2.47922 5.79615V7.28387H2.01562V4.9964H2.43629L3.1746 6.01114L3.9215 4.9964H4.34217V7.28387H3.87858V5.79615L3.1746 6.7593L2.47922 5.79615Z" fill="#ED1B06"/>
<path d="M64.7769 9.59713C64.7572 8.77217 64.9071 7.95198 65.2172 7.18749C65.5273 6.423 65.9911 5.73054 66.5796 5.15312C67.1681 4.5757 67.8689 4.12566 68.6383 3.83093C69.4078 3.53621 70.2295 3.4031 71.0525 3.43988C72.2522 3.41411 73.4313 3.75387 74.4339 4.41418C75.4365 5.07449 76.2153 6.02423 76.6671 7.13767H73.5851C73.2696 6.76551 72.8739 6.46996 72.4277 6.27333C71.9816 6.07669 71.4967 5.9841 71.0096 6.00253C70.537 5.98213 70.0652 6.05977 69.6239 6.23058C69.1827 6.40139 68.7814 6.66168 68.4453 6.99515C68.1091 7.32861 67.8454 7.72804 67.6707 8.16839C67.4959 8.60875 67.4138 9.08052 67.4297 9.55413C67.4135 10.0308 67.4965 10.5056 67.6733 10.9484C67.8502 11.3912 68.117 11.7923 68.4569 12.1263C68.7968 12.4603 69.2023 12.7198 69.6476 12.8884C70.093 13.057 70.5685 13.131 71.0439 13.1057C72.8296 13.1057 73.8512 12.2458 74.1346 10.7925H70.7005V8.3502H76.9075C77.4913 13.3723 74.6239 15.72 71.0439 15.72C70.2233 15.7539 69.4044 15.6201 68.6371 15.3268C67.8698 15.0336 67.17 14.5869 66.5805 14.0141C65.991 13.4413 65.524 12.7543 65.2081 11.995C64.8921 11.2356 64.7337 10.4198 64.7425 9.59713" fill="white"/>
<path d="M78.2425 9.59707C78.2306 8.37168 78.5824 7.17039 79.2534 6.1457C79.9244 5.12102 80.8842 4.31916 82.011 3.84194C83.1378 3.36471 84.3808 3.23365 85.5821 3.46538C86.7834 3.69711 87.8889 4.28119 88.7581 5.14346C89.6274 6.00573 90.2213 7.1073 90.4644 8.30831C90.7075 9.50931 90.5888 10.7556 90.1234 11.8889C89.658 13.0222 88.867 13.9915 87.8506 14.6736C86.8343 15.3557 85.6385 15.7199 84.4151 15.7199C82.7863 15.7268 81.2214 15.0858 80.0641 13.9378C78.9067 12.7898 78.2516 11.2286 78.2425 9.59707V9.59707ZM87.8749 9.59707C87.853 8.92193 87.6331 8.26821 87.2427 7.71743C86.8523 7.16665 86.3086 6.74321 85.6795 6.49992C85.0504 6.25662 84.3637 6.20425 83.7051 6.34934C83.0465 6.49442 82.4451 6.83053 81.976 7.31575C81.5068 7.80097 81.1907 8.41382 81.0669 9.07785C80.9432 9.74187 81.0175 10.4277 81.2803 11.0497C81.5432 11.6718 81.9831 12.2026 82.5451 12.5758C83.1072 12.9491 83.7665 13.1483 84.4409 13.1487C85.3639 13.1261 86.2412 12.7412 86.8835 12.0768C87.5259 11.4125 87.8819 10.5219 87.8749 9.59707Z" fill="white"/>
<path d="M91.7581 9.59707C91.7462 8.37168 92.0981 7.17039 92.769 6.1457C93.44 5.12102 94.3998 4.31916 95.5266 3.84194C96.6534 3.36471 97.8964 3.23365 99.0977 3.46538C100.299 3.69711 101.404 4.28119 102.274 5.14346C103.143 6.00573 103.737 7.1073 103.98 8.30831C104.223 9.50931 104.104 10.7556 103.639 11.8889C103.174 13.0222 102.383 13.9915 101.366 14.6736C100.35 15.3557 99.1541 15.7199 97.9307 15.7199C96.302 15.7268 94.7371 15.0858 93.5797 13.9378C92.4224 12.7898 91.7672 11.2286 91.7581 9.59707V9.59707ZM101.391 9.59707C101.369 8.92193 101.149 8.26821 100.758 7.71743C100.368 7.16665 99.8242 6.74321 99.1951 6.49992C98.566 6.25662 97.8794 6.20425 97.2207 6.34934C96.5621 6.49442 95.9607 6.83053 95.4916 7.31575C95.0224 7.80097 94.7063 8.41382 94.5826 9.07785C94.4589 9.74187 94.5331 10.4277 94.796 11.0497C95.0588 11.6718 95.4987 12.2026 96.0608 12.5758C96.6228 12.9491 97.2821 13.1483 97.9565 13.1487C98.8795 13.1261 99.7568 12.7412 100.399 12.0768C101.041 11.4125 101.398 10.5219 101.391 9.59707" fill="white"/>
<path d="M105.946 3.68075H110.015C111.605 3.66004 113.138 4.27099 114.279 5.37986C115.419 6.48872 116.075 8.00516 116.102 9.59721C116.066 11.1847 115.405 12.6937 114.264 13.7954C113.122 14.8971 111.592 15.5024 110.007 15.4793H105.938L105.946 3.68075ZM110.015 13.0886C110.468 13.0924 110.917 13.0042 111.335 12.8292C111.753 12.6542 112.131 12.3961 112.446 12.0705C112.762 11.7449 113.008 11.3586 113.17 10.935C113.332 10.5113 113.407 10.0591 113.389 9.60581C113.407 9.15247 113.332 8.70029 113.17 8.27665C113.008 7.85301 112.762 7.46671 112.446 7.14112C112.131 6.81553 111.753 6.55743 111.335 6.38243C110.917 6.20744 110.468 6.11918 110.015 6.12301H108.625V13.0972L110.015 13.0886Z" fill="white"/>
<path d="M117.306 9.59706C117.287 8.77286 117.436 7.95341 117.746 7.18953C118.056 6.42564 118.519 5.7336 119.106 5.15631C119.694 4.57902 120.393 4.12878 121.162 3.83351C121.93 3.53825 122.751 3.40424 123.573 3.43981C124.773 3.41404 125.952 3.75379 126.955 4.41411C127.957 5.07442 128.736 6.02416 129.188 7.1376H126.115C125.799 6.76543 125.403 6.46989 124.957 6.27326C124.511 6.07662 124.026 5.98403 123.539 6.00246C123.066 5.98206 122.595 6.05969 122.153 6.2305C121.712 6.40131 121.311 6.66161 120.975 6.99507C120.639 7.32853 120.375 7.72797 120.2 8.16832C120.025 8.60867 119.943 9.08045 119.959 9.55406C119.936 10.0388 120.016 10.523 120.193 10.9747C120.37 11.4265 120.641 11.8355 120.987 12.175C121.333 12.5145 121.747 12.7768 122.202 12.9446C122.657 13.1124 123.142 13.182 123.625 13.1487C125.411 13.1487 126.432 12.2887 126.716 10.8354H123.282V8.35013H129.489C130.072 13.3722 127.205 15.7199 123.625 15.7199C122.804 15.7538 121.985 15.62 121.218 15.3268C120.451 15.0335 119.751 14.5869 119.162 14.0141C118.572 13.4413 118.105 12.7543 117.789 11.9949C117.473 11.2355 117.315 10.4197 117.324 9.59706" fill="white"/>
<path d="M134.786 3.68073H137.207L142.358 15.5222H139.568L138.512 13.0198H133.567L132.485 15.4792H129.695L134.786 3.68073ZM137.491 10.7151L135.997 7.14633L134.503 10.7151H137.491Z" fill="white"/>
<path d="M146.256 8.21267V15.5222H143.586V3.68073H146.015L149.75 8.78023L153.484 3.68073H155.923V15.5222H153.227V8.21267L149.75 13.0026L146.256 8.21267Z" fill="white"/>
<path d="M158.438 3.68073H166.001V6.21758H161.116V8.33306H164.996V10.8699H161.116V12.9854H166.001V15.5222H158.438V3.68073Z" fill="white"/>
<path d="M73.9281 30.0896L68.1074 22.7714V30.0896H65.4375V18.2481H67.7383L73.5418 25.5491V18.2481H76.2289V30.0896H73.9281Z" fill="white"/>
<path d="M82.5768 18.2481H84.9892L90.1402 30.0982H87.3501L86.2942 27.5958H81.3148L80.2589 30.0982H77.4688L82.5768 18.2481ZM85.2811 25.2825L83.7873 21.7137L82.2935 25.2825H85.2811Z" fill="white"/>
<path d="M92.3133 20.785H89.2656V18.2481H98.0738V20.785H95.0004V30.0896H92.3133V20.785Z" fill="white"/>
<path d="M102.377 18.2482H99.707V30.0897H102.377V18.2482Z" fill="white"/>
<path d="M104.231 24.1646C104.219 22.9392 104.571 21.738 105.242 20.7133C105.913 19.6886 106.872 18.8867 107.999 18.4095C109.126 17.9323 110.369 17.8012 111.57 18.0329C112.772 18.2647 113.877 18.8488 114.746 19.711C115.616 20.5733 116.21 21.6749 116.453 22.8759C116.696 24.0769 116.577 25.3232 116.112 26.4565C115.646 27.5898 114.855 28.559 113.839 29.2411C112.823 29.9232 111.627 30.2874 110.403 30.2875C108.775 30.2943 107.21 29.6534 106.052 28.5054C104.895 27.3573 104.24 25.7961 104.231 24.1646V24.1646ZM113.863 24.1646C113.841 23.4895 113.621 22.8358 113.231 22.285C112.841 21.7342 112.297 21.3108 111.668 21.0675C111.039 20.8242 110.352 20.7718 109.693 20.9169C109.035 21.062 108.433 21.3981 107.964 21.8833C107.495 22.3685 107.179 22.9814 107.055 23.6454C106.932 24.3094 107.006 24.9953 107.269 25.6173C107.531 26.2394 107.971 26.7701 108.533 27.1434C109.095 27.5166 109.755 27.7159 110.429 27.7162C111.352 27.6937 112.229 27.3088 112.872 26.6444C113.514 25.9801 113.87 25.0895 113.863 24.1646Z" fill="white"/>
<path d="M126.905 30.0897L121.093 22.7715V30.0897H118.414V18.2482H120.723L126.518 25.5492V18.2482H129.205V30.0897H126.905Z" fill="white"/>
<path d="M32.6218 17.4483C32.4794 16.7655 32.3904 16.0726 32.3557 15.3758C32.338 14.8908 32.3552 14.4051 32.4072 13.9225H24.1055L16.1472 21.0257H29.2308C28.4238 25.1277 25.5134 27.6559 20.474 27.6559C14.1898 27.6559 10.2407 23.1756 10.2407 17.4999C10.2407 11.8242 14.1898 7.3439 20.3796 7.3439C21.7437 7.30775 23.0983 7.58052 24.3425 8.14187C25.5867 8.70322 26.6883 9.53867 27.5653 10.5859H33.3086C33.7437 9.6248 34.3037 8.72552 34.9741 7.91147C33.4072 5.46477 31.2466 3.45582 28.6944 2.07228C26.1422 0.688745 23.2815 -0.0242415 20.3796 -7.69906e-05C10.0518 -7.69906e-05 2.61719 7.67928 2.61719 17.4999C2.61719 27.3206 10.0518 34.9999 20.474 34.9999C27.239 34.9999 33.1026 31.9987 35.7725 25.7469C33.8561 23.5107 32.7464 20.6938 32.6218 17.7493C32.6218 17.6461 32.6218 17.5515 32.6218 17.4483Z" fill="#ED1B06"/>
<path d="M26.1062 17.5C26.1062 7.67936 33.5323 0 43.8601 0C50.7281 0 57.3815 4.00737 59.7595 10.586H51.0457C50.1684 9.53923 49.0667 8.70412 47.8226 8.14281C46.5785 7.58151 45.2241 7.30846 43.8601 7.34398C37.6703 7.34398 33.7212 11.8243 33.7212 17.5C33.7212 23.1757 37.6703 27.656 43.9545 27.656C49.0025 27.656 51.9042 25.1278 52.7112 21.0258H40.0312L47.9895 13.9226H60.5751C62.2406 28.2838 54.0848 35 43.9545 35C33.5237 35 26.0977 27.3206 26.0977 17.5" fill="#ED1B06"/>
</svg>
